<?xml version="1.0" encoding="UTF-8"?>
<svg version="1.1" viewBox="0 0 1024 1024" width="1024" height="1024" xmlns="http://www.w3.org/2000/svg">
<path transform="translate(0)" d="m0 0h1024v1024h-1024z" fill="#0D091B"/>
<path transform="translate(787,234)" d="m0 0 3 1-7 7-9 11-16 16-7 8-14 14-7 8-21 21-7 8-36 36-7 8-56 56-7 8-10 10-7 8-35 35-7 8-33 33-6 7-5 5-8 6-22 12-21 12-19 11-21 12 26-5 51-11 55-13 44-12 41-13 27-10 31-13 16-8-10-12-2-2 9-7 2-2 7 7 4 2-2 1-1 5-2 5 19-9 19-12 19-14 13-11 8-8 8-10 9-14 5-10 2-7v-14l-4-12-7-10-9-9-13-8-15-7-24-7v-1l10 1 21 6 20 8 14 8 10 9 7 9 5 10 3 13v11l-2 15-7 21-11 20-10 14-12 14-7 8-11 11-8 7-12 10-17 12-19 12-25 14-15 8-29 13-31 12-25 9-33 10-38 10-51 12-58 12-49 10-103 22-11 2 2-4 52-52 7-8 25-25 7-8 41-41 7-8 26-26 7-8 29-29 7-8 88-88 7-8 23-23-4-1-32-2-66-3-88-5-59-3v-2l38-8 16-4 15-3 30-7 40-9 64-15 36-8 38-9 39-9 64-16 37-9 40-10z" fill="#DD71FA"/>
<path transform="translate(761,206)" d="m0 0h27l2 2 12 4 7 5 3 1 5 6h8l27-7 9-1-4 3-25 12-19 9h-3l-1 8-7 16-11 12-5 5-9 8-1 2h-2v2l-9 6-15 9-5 5h-2l-2 4-8 8-4 7-2 4h-2l-2 5 5 2v2l8 1 18 6 16 8 11 7 11 11 6 10 3 10v14l-3 10-10 17-9 12h-2l-2 4-11 11-9 7-16 12-14 9-16 9-10 5-2-1 5-11-5-3-5-5-9 8 6 8 3 3v2l3 1-16 8-28 12-29 11-37 12-55 15-51 12-51 11-24 5-3-1 24-14 26-15 18-10 21-12 6-7 6-5 7-8 33-33 7-8 35-35 7-8 10-10 7-8 56-56 7-8 36-36 7-8 21-21 7-8 14-14 7-8 12-12 9-11 5-5-19 4-56 14-73 18-41 10-36 8-29 7-36 8-37 9-14 3-49 11-8 1-3-2 2-4 3-1 5 2 1-3 12-5 3-2 1-3 6-3 8-3 5-5 9-3 3-3 2-1h6v2l10-1 15-6 10-5 13-4 15-5 28-7 8-3 20-5 22-6 9-4 1-2 17-4 11-1 8-3 13-2 10-5 12-3 10-3 8-2 15-5 18-5 13-2 19-4z" fill="#0D091B"/>
<path transform="translate(728,344)" d="m0 0 10 1 21 6 20 8 14 8 10 9 7 9 5 10 3 13v11l-2 15-7 21-11 20-10 14-12 14-7 8-11 11-8 7-12 10-17 12-19 12-25 14-15 8-29 13-31 12-25 9-33 10-38 10-51 12-58 12-49 10-103 22-11 2 2-4 52-52 7-8 22-22 8-7 28-28 3-1-1 5-18 18-1 2h-2v2h-2l-1 4 7 6 4-1 14-10 11-8 4-3 2 1-15 12-8 7-1 2 23-13 22-12 18-10 25-12 4-1 6-2 22-12 14-7h7v2l-23 13-20 11-22 13-23 13 26-5 51-11 55-13 44-12 41-13 27-10 31-13 16-8-10-12-2-2 9-7 2-2 7 7 4 2-2 1-1 5-2 5 19-9 19-12 19-14 13-11 8-8 8-10 9-14 5-10 2-7v-14l-4-12-7-10-9-9-13-8-15-7-24-7z" fill="#FDDB5F"/>
<path transform="translate(825,367)" d="m0 0h2l3 5 4 3 5 1-1 2h-2l-1 6-3 5-1 9 2 16v15l-3 12-5 15-7 11-3 6-4 6h-2l-1 4-4 6h-2l-2 4-8 10-1 2h-2l-2 5-4 4-1 5 2 6 6 7 5 2v7l-5 6-9 4-4-2-10-1-6 1v4 3l3 1-1 4-5 2-4-4v-2h2v-3l-8 4-2 2 1 5 6 8v2l3 1-6 7-5 4-2 1-2 4h-1v-6l-4-2-6-5-6-1-4 2h-2l-1 3-4 3 2 5v8h-3v5l-6 5-6-5-1-7 1-3h-6l-10 5-16 7h-5l-3 3 4 3v2l4 1 16 8 9 5 16 9 11 8 7 5v2h2v2l6 2 8 8 5 10-1 2 5 2 26 15 1 2-43-4-23-3-22-2-22-3-32-3-43-5-53-5-28-3-32-4h-12l-18 4 3 2 25-1 10-1 3 2-1 2-20 3-17 1-15-1-16 1h-14l-18 1-16 2-19 3-9 3-24 5-16 2-27 1-5 1-9 1-3-2 2-2 40-9 67-14 64-13 54-12 47-12 30-9 30-10 31-12 29-13 16-8 19-10 23-14 16-11 13-10 10-9 12-11 8-8 9-11 10-13 9-15 8-16 5-16 2-15v-11l-4-16-6-10-4-6 1-1 12-1z" fill="#361642"/>
<path transform="translate(696,537)" d="m0 0 2 1-2 4-9 6-12 6-16 9-25 12-14 7 21-4 1-4 5-3 16-1 5-2 5-5 9-2 6 1 2 1v2l-10 6-10 5h2l-2 5-37 17-31 12-25 9-33 10-38 10-51 12-58 12-49 10-103 22-11 2 2-4 2-1 5-1 23-11 8-5 12-4v-2l16-8 17-8 21-9 9-5 1-2h4v-2l23-3 21-4 10-2 29-6 15-4 26-5 66-17 44-13 38-13 35-14z" fill="#FC3A28"/>
<path transform="translate(591,384)" d="m0 0 2 2-8 8-7 8-14 14-7 8-20 20-8 7-22 22-8 7-13 12-19 19-8 7-12 12-8 7-10 9-11 9-4 2 5 1 7-4 3-4 4 1 4 4 13-8 2 1-9 7-3 7 13-6h2v-2l25-12 8-6 7-7 7-6 7-8 81-81 3-1 2 4-9 9-7 8-35 35-7 8-33 33-6 7-5 5-3 2h-7l-16 8-24 13h-5l-19 10-16 8-26 14-23 13-5 3-2-1 9-9 12-9 2-2-18 13-11 8-4-1-7-6 2-4h2v-2h2l2-4 16-16 1-4-8 7-25 25v-3l46-46 7-8 26-26 7-8 29-29 7-8 87-87h6l-4 5 12 7 5 7v2l5 2v2l8-7 14-14 7-8 4-4z" fill="#84F6F7"/>
<path transform="translate(708,340)" d="m0 0 20 3v2l8 1 18 6 16 8 11 7 11 11 6 10 3 10v14l-3 10-10 17-9 12h-2l-2 4-11 11-9 7-16 12-14 9-16 9-10 5-2-1 5-11-5-3-5-5-9 8 6 8 3 3v2l3 1-16 8-28 12-29 11-37 12-55 15-51 12-51 11-24 5-3-1 24-14 22-13 4 1 10-4 9-2 12-5 3 1-2 5 3 2 8-1 14-5 5-2-1-2-5-1v-2h2v-2l6-4 2-2 45-3 37-13 15-7 12-5 24-12 15-9 12-8 7-5 16-4 9-4 17-10 15-10 11-10 9-11 5-8 3-7 1-6-2-8-5-2-7-8-2-6-4-1-6-5-2-9h-5l1-2h4l-3-9-4-7-5-5-8-1-2-1-2 1h-6l4-7-8-1z" fill="#2C0D22"/>
<path transform="translate(675,519)" d="m0 0 4 1 1 3-29 12-17 6-26 9-10 4-12 3-8 3-39 11-18 5 2 6 1 1 12 2 2 3v3h6l6-2 16-4 38-12 7-2 6-1 1-2 9-4 12-3 17-7v3l-33 13-41 14-49 14-64 16-26 5-15 4-30 6-21 4-18 2h-5v2h-4l-2 4-21 10-19 8-16 8-6 2v2l-7 4-6 2-16 8-15 8h-4l2-4 48-48 7-8 22-22 8-7 28-28 3-1-1 5-18 18-1 2h-2v2h-2l-1 4 7 6 4-1 14-10 11-8 4-3 2 1-15 12-8 7-1 2 23-13 22-12 18-10 25-12 4-1 6-2 22-12 14-7h7v2l-23 13-20 11-22 13-23 13 26-5 51-11 55-13 44-12 41-13 27-10z" fill="#FEDC5E"/>
<path transform="translate(685,308)" d="m0 0v3l-7 11 8-2 2 2 2 10-14 14-7 8-28 28-7 8-15 14-5 5-9 10-14 14-7 8-80 80-7 8-8 7-7 6-21 10-6 2v2l-12 6h-3l1-6 8-7-9 5-4 2-4-5h-3l-4 5-6 3h-5v-2l14-11 8-8 8-7 10-9 11-11 8-7 21-21 8-7 13-12 20-20 8-7 19-19 7-8 14-14 7-8 12-13 13-13 7-8 8-7 9-10 9-9 21-12z" fill="#6139E1"/>
<path transform="translate(552,291)" d="m0 0 6 1 4 1 12-2h5l2 4v10l2 1-41 14-9 3-20 2-4 1 18-1 29-2 61-6 30-4 12-3v2l-10 4-22 12-36 18-21 11-6 1v2l-26-1-12-1-66-3-88-5-59-3v-2l38-8 16-4 15-3 30-7 40-9 64-15z" fill="#903BD5"/>
<path transform="translate(755,220)" d="m0 0h19l11 2 9 6 1 3 14-1-2 1-2 5v6l-11 6h-2l-1 9-6 9-12 12-9 7-5 5-10 8-6 4-8 7-12 9-6 5-5 5-8 9-10 8-16 12 4-1 5 1-5 5-3 1-2 5-17 17-4 5-6 5-7 8-12 12-8 7-14 14-7 6-8 10-18 18-2 3-5 3-8 7-2 3h-2l-2 4-8 7-10 7-4 3h-2l-1 3-1-4 10-10 4-7 41-41 7-8 10-10 7-8 56-56 7-8 36-36 7-8 21-21 7-8 14-14 7-8 12-12 9-11 5-5-19 4-56 14-73 18-41 10-36 8-29 7-36 8-30 7-6-1 4-5 25-10 18-5 8-4 15-6 13-4 19-5 2-1 12-2 32-8 15-3 11-1 10-4 24-8 17-5 8-3 24-7 11-3 9-3z" fill="#160B39"/>
<path transform="translate(761,206)" d="m0 0h27l2 2 12 4 7 5 3 1 5 6h8l27-7 9-1-4 3-25 12-19 9h-3l-1 8-7 16-11 12-5 5-9 8-1 2h-2v2l-9 6-15 9-5 5h-2l-2 4-8 8-4 7-2 4h-2l-2 5-6 1-8-1-1 1h8l2 2-5 5-7 6-9 4-11 10h-2l-2 4-12 12-5 4-10 10h-2l-2 4-5 6-8 7-5 5-11 10-2 3h-2l-2 4-13 12-4 5h-2v2l-11 9-5 5h-2v2l-4 1-1-3 5-6 8-7 9-9 8-10 13-12 12-12 8-7 11-11 6-7 22-22 3-5 7-5-4-1-5 2 2-4 15-11 12-10 7-8 3-1 2-4 15-12 8-6 6-5 6-4 8-7h2l1-3 12-9 7-8 4-5 4-8 1-6 12-6v-6l3-5h-12l-5-5-8-4-8-1h-19l-23 5-6 2-26 8-11 3-8 3-12 4-16 5-15 5-5 1-17 3-22 5-18 5-9 1-12 4-17 4-16 6-15 7-21 6-19 8-3 3 1 3-70 16-7-1 1-4 4-2 5 2 1-3 12-5 3-2 1-3 6-3 8-3 5-5 9-3 3-3 2-1h6v2l10-1 15-6 10-5 13-4 15-5 28-7 8-3 20-5 22-6 9-4 1-2 17-4 11-1 8-3 13-2 10-5 12-3 10-3 8-2 15-5 18-5 13-2 19-4z" fill="#120925"/>
<path transform="translate(489,378)" d="m0 0 3 1-35 17-19 10-22 12-23 13-27 16v2l2 4 12-7 21-13 20-12 22-12 16-8 21-10 18-8 10-5 2 1-27 16-40 24-21 13-28 19-17 12-11 8-21 16-9 7-13 11-11 9-14 12-13 12-19 19-9 11-9 12-8 15-4 13-1 12 4 13 4 5 10 5 11 1 12-2-4 3-14 5h-12l-1-3-9-6-8-11-3-11v-14l4-15 7-16 5-7 5-9 3-4h2l2-5 12-13 10-11 11-9 4-4 1-3-4-1v-2l-5 1-14 12-8 7-7 8-8 8-2 3h-2l-2 4-10 15-8 16-3 7-1-3 5-12 8-15 13-19 9-11 9-10 15-15 8-7 13-11 13-10 19-14 17-11 20-12 23-13 35-18 21-10 31-13z" fill="#2DA7E5"/>
<path transform="translate(720,348)" d="m0 0 10 2 5 4 3 6 4 7v5l-4 1 4 1 3 9 6 5 3 1 6 10 6 5 4 4 1 6-3 10-5 9-9 10-7 8-10 8-11 7-18 11-15 5-11 3-8 6-14 9-17 10-10 5-7 3-26 11-12 5-18 6-8 3-45 3-6 5h-2v2l-1 1 5 2v2l-7 4-15 5h-5l-4-3 2-5-10 3-7 3-12 3-6 2v-3l14-8 10-1 10-4v-2l8-6 2-1-1 5 7-3 8-6 9-8 1 4v3l10-4 8-1 2 1 11-1v-2l12-3 4-2 9-1 4-3 3-1v2l19-7 15-6 1-3 10-5 9-4 9-6 16-7 11-5 22-11 8-2 13-8 15-11 7-3 7-6 4-4 2-5 5-5 4-5 1-3v-8l-5-10-7-9-8-7-3-4-3-12-10-4-3-1v-2l-5 1-1 2-12 5-5 2-4 5-1 2h-2v2l-4 3h-2l-2 4-5 4-6 4-14 15-7 10-7 7-6 4-1 2h-2l-2 4-12 12-1 5-6 5-3-1-10 8-7 7-4 8-12 11-7-1 4-4 6-5 4-6 3-4-4 2v2l-8 6-7 6-6 8h-2l-2 4-13 9-6 5-2-1 7-7 10-8 9-10 7-8 6-6h2v-2h2v-2l11-9 5-5h2v-2l14-14 6-5 7-8 9-8 15-15 5-6 10-8 5-6 8-7 12-12 12-10 9-4 2-2z" fill="#160A1B"/>
<path transform="translate(750,331)" d="m0 0 5 1 5-1 5 1 15 1 3 1v-2h5v2l9 3 21 8 6 3 6 2 11 8 8 10 4 10 2 11 2 28v7l-6 26-3-1-2 4-7 17-10 15-7 11-12 14-2 5-5 7-2 12-4 5v6l-6 6-6 2h-7l1 3-12 3-6-3v-3l-2-1 4-4 8-1 9 2h3l7-3 4-6 1-6-5-1-8-9-1-7 3-5 5-7h2l2-5 9-11h2l5-10h2l2-5 3-4 6-11 4-8 5-17 1-5v-17l-2-16 2-9 4-9 2-1-5-2-5-4-1-4-11 8-14 1-9-8-16-9-21-8-18-5-10-2 1-3 5-1 5-4 7-1z" fill="#15091B"/>
<path transform="translate(531,399)" d="m0 0 6 1 9 6 4 6v2l5 2 1 3-6 7-28 28-8 7-16 16-8 1-4 1 4 2-2 1-1 6-9 9-8 7-10 10-8 7-14 12-10 8-4-1-5-7-12-5 2-4 7-8 19-19 7-8 88-88z" fill="#54F3FB"/>
<path transform="translate(552,291)" d="m0 0 6 1 4 1 12-2h5l2 4v10l2 1-41 14-9 3-20 2-4 1 7 1v1l-60 5-44 3-49 4-13 3h-3v2h27l70 3 87 5 26 2 5 1 1 3h-25l-12-1-66-3-88-5-59-3v-2l38-8 16-4 15-3 30-7 40-9 64-15z" fill="#5D37DE"/>
<path transform="translate(497,606)" d="m0 0 4 1-13 6-17 5-9 3-10 2-6 1h-9l-13 3-21 7-19 4-3 6-1 4 25-4 26-6 11-2h5l2 9 12-2 37-8h2l1 5-37 9-62 13-35 7-122 26-11 2 2-4 2-1 5-1 23-11 8-5 12-4v-2l16-8 17-8 21-9 9-5 1-2h4v-2l23-3 21-4 10-2 29-6 15-4 26-5z" fill="#FC8835"/>
<path transform="translate(483,543)" d="m0 0h7v2l-23 13-20 11-22 13-23 13 26-5 15-3h7l-3 2-5 1-1 3-29 6h-6l-8 3-8 2-20 11-10 6-1 12 4-2 7 1v1l-11 2h-5v2h-4l-2 4-21 10-19 8-16 8-6 2v2l-7 4-6 2-16 8-15 8h-4l2-4 48-48 7-8 22-22 8-7 28-28 3-1-1 5-18 18-1 2h-2v2h-2l-1 4 7 6 4-1 14-10 11-8 4-3 2 1-15 12-8 7-1 2 23-13 22-12 18-10 25-12 4-1 6-2 22-12z" fill="#FDF589"/>
<path transform="translate(652,622)" d="m0 0 6 2 24 14 27 15 24 14 23 13 23 14-2 1-41-4-23-3-22-2-22-3-32-3-43-5-53-5-12-3v-3l22 1 72 7 42 5h7l1-6 13-2 2-1v-2l-10-2-22-6-20-6-40-10-2-2 50-15 7-2z" fill="#D457FB"/>
<path transform="translate(728,344)" d="m0 0 10 1 21 6 20 8 14 8 10 9 7 9 5 10 3 13v11l-2 15-7 21-11 20-10 14-12 14-7 8-11 11-8 7-12 10-17 12-19 12-25 14-4 2-3-1 1-1-3-1 19-10 3-1v-2l-8-1-11 3-4 5-4 1-16 1-5 3-1 3-16 4-7 1 3-3 42-20 14-8 17-9 3-4v-3l15-8 15-10 11-7 8-6 1-2 7-4 13-12 8-7 7-7 8-10 7-10 9-19 4-14v-19l-2-9-2-5v-3l-4-1-7-9-3-2 5 6-1 7-4-5-7-8-8-7-10-6-15-7-24-7z" fill="#FD9D39"/>
<path transform="translate(531,448)" d="m0 0v3l-1 2 3 1v3l6-1v5h6v11l6 1-6 7-41 41-7 8-8 7-7 6-21 10-6 2v2l-12 6h-3l1-6 8-7-9 5-4 2-4-5h-3l-4 5-6 3h-5v-2l14-11 8-8 8-7 10-9 11-11 8-7 21-21 8-7 13-12z" fill="#2879D0"/>
<path transform="translate(469,662)" d="m0 0h12l41 5 48 5 24 2 43 5 49 5 15 2 30 3 13 2 1 3-3 4-23 3-22 1h-25l-16-1-12-2-26-3-20-3-51-6-11-3h-12l-5-2-9-2-18-1-6-1-33-1 3-3 23-2 12-2-2-2-31 2-9-1 1-3z" fill="#120925"/>
<path transform="translate(482,356)" d="m0 0h18l26 1 32 2 5 1-6 7-23 23-7 8-60 60-5-1-10 9-9 6-6 2 2-4 10-10 1-2h2l2-4 8-9 4-6 7-9 7-8 10-12 7-12 4-8 4-9 1-1-23 11-12 5-25 12-23 13-16 9-19 12-18 11-3 1-1-5-2-1 10-7 16-9 21-12 29-16 31-16 19-9h2v-2l5-1v-5h-2v-3l-2-1v-2l-4-1-1-2-8-4z" fill="#141447"/>
<path transform="translate(825,367)" d="m0 0h2l3 5 4 3 5 1-1 2h-2l-1 6-3 5-1 9 2 16v15l-3 12-5 15-7 11-3 6-4 6h-2l-1 4-4 6h-2l-2 4-8 10-1 2h-2l-2 5-4 4-1 5 2 6 6 7 5 2-3 1-2 4-8 10-2-3-3-6-2-2v-3h-8l1-2 5-3 2-4-5 1-10 8h-2v2l-6 4-9 7-14 10-20 12-11 6-10 5-12 4-8 4-25 8-13 5h-7l3-2 40-18 26-14 23-14 16-11 13-10 10-9 12-11 8-8 9-11 10-13 9-15 8-16 5-16 2-15v-11l-4-16-6-10-4-6 1-1 12-1z" fill="#4C132A"/>
<path transform="translate(804,230)" d="m0 0h5l-2 1-2 5v6l-11 6h-2l-1 9-6 9-12 12-9 7-5 5-10 8-6 4-8 7-12 9-6 5-5 5-8 9-10 8-16 12 4-1 5 1-5 5-3 1-2 5-17 17-4 5-6 5-7 8-12 12-8 7-14 14-7 6-8 10-18 18-2 3-5 3-8 7-2 3h-2l-2 4-8 7-10 7-4 3h-2l-1 3-1-4 10-10 4-7 41-41 7-8 10-10 7-8 56-56 7-8 36-36 7-8 21-21 7-8 14-14 7-8 12-12 9-11 5-6v-1z" fill="#1B0F4E"/>
<path transform="translate(642,616)" d="m0 0 6 2 5 4-4 3-25 7-27 8-1 1 47 12 25 7 12 4 8 2-1 4-11 1-3 3v4l-17-1-52-6-75-7v3l2 1h-9l-48-6-3-2 13-1h14l10 1h12l25-7 35-9 9-2h4v-2l-8-1-6-2v-1l14-3 12-3 21-7h4v-2z" fill="#631EA5"/>
<path transform="translate(778,366)" d="m0 0 4 2 10 10 6 10 3 10v14l-3 10-10 17-9 12h-2l-2 4-11 11-9 7-16 12-14 9-16 9-10 5-2-1 5-11-5-3-5-5-9 8 6 8 3 3v2l3 1-16 8-28 12-18 7h-6l1-2h2v-2l13-6 14-7 5-4 5-5 6-5 1-3 5-2 1-4h-2l2-4 5-5 3-2h3l1-3 1 3 11 1 10-4 7-3 12-6 9-7 4-1v-2l10-8h2v-2l5-5 11-15 5-10 2-11 1-11-2-4h-9l-1 3-1-3-4-2-3-3v-2h-3v-2h2l2-4 6-7 6-5z" fill="#641935"/>
<path transform="translate(856,216)" d="m0 0h5l-4 3-25 12-19 9h-3l-1 8-7 16-11 12-5 5-9 8-1 2h-2v2l-9 6-15 9-5 5h-2l-2 4-8 8-4 7-2 4h-2l-2 5-6 1-8-1-1 1h8l2 2-5 5-7 6-9 4-11 10h-2l-2 4-12 12-5 4-10 10h-2l-2 4-5 6-8 7-5 5-11 10-2 3h-2l-2 4-13 12-4 5h-2v2l-11 9-5 5h-2v2l-4 1-1-3 5-6 8-7 9-9 8-10 13-12 12-12 8-7 11-11 6-7 22-22 3-5 7-5-4-1-5 2 2-4 15-11 12-10 7-8 3-1 2-4 15-12 8-6 6-5 6-4 8-7h2l1-3 12-9 7-8 4-5 4-8 1-6 12-6v-6l3-5-1-2 22-6z" fill="#1B0A2F"/>
<path transform="translate(650,319)" d="m0 0 2 1-10 9-11 12-14 14-7 8-11 11-7 8-13 13-7 8-15 15h-2l-6-6-4-6-10-6-3-2 4-4h-4l2-5 29-29 1-2 12-5 17-9 16-8 5 2 23-12 10-6z" fill="#8D83F5"/>
<path transform="translate(774,244)" d="m0 0 2 1-9 10-32 32 1 6-27 27-7 8-36 36-7 8-56 56-7 8h-2l-2-2-2-1 26-26 9-10 13-12 9-10 27-27 7-8 8-8-2-10-4-1-6 3 2-5 6-10-20 10-15 9-2-1 13-15 9-7 26-15 25-14 15-9 27-16z" fill="#D456FB"/>
<path transform="translate(772,525)" d="m0 0 3 1-2 5-5 3 7 1 3 5 4 8 10-13h3v6l-5 6-9 4-4-2-10-1-6 1v4 3l3 1-1 4-5 2-4-4v-2h2v-3l-8 4-2 2 1 5 6 8v2l3 1-6 7-5 4-2 1-2 4h-1v-6l-4-2-6-5-6-1-4 2h-2l-1 3-4 3 2 5v8h-3v5l-6 5-6-5-1-7 1-3h-6l-10 5-16 7h-5l-3 4-17 1-4-4-11-1-1-4 14-5 11-4 21-7 9-4 12-5 10-5 20-12 15-10 10-8 7-5h2v-2l8-6z" fill="#2C0D24"/>
<path transform="translate(750,343)" d="m0 0h2v2l3-1 7 1 7-1h21l16 6 10 6 11 5 9 3 3 3 4 9v20l2 18v9l-4 18-4 11-6 14-9 14-6 9-18 22-5 11 1 9h2l1 4-7-2-8-9-1-7 3-5 5-7h2l2-5 9-11h2l5-10h2l2-5 3-4 6-11 4-8 5-17 1-5v-17l-2-16 2-9 4-9 2-1-5-2-5-4-1-4-11 8-14 1-9-8-16-9-21-8-14-4 2-1v-2z" fill="#2C0D22"/>
<path transform="translate(787,234)" d="m0 0 3 1-7 7-9 11-16 16-7 8-15 15-2-2 1-4 38-38 1-3-21 13-48 28-25 14-17 11-10 11-8 10-12 12-7 8-9 8-7 8-15 15-1 2h-5l6-7 11-12 9-9 7-8 16-16 7-8 5-5-12 6-22 12-5 1v-4l24-12 8-5 13-6h3l-1-1-11 3-30 4-39 4-32 3-30 2h-7l-1-2 25-3 27-3 50-5 51-7 35-21v-2l-6-5-2-4 8-4 20-9 5-3 1-2-14 2-28 7h-5v-2l-7 1 2-2 100-25z" fill="#F8B6D6"/>
<path transform="translate(708,340)" d="m0 0 20 3v2l8 1 18 6 16 8 8 5-3 9-7 6-7 9h-2v2h3l5 6 3 3 1-2 9-1 3 5-1 14-3 10-6 11-6 8-7 9h-2v2l-8 6-4 2v2l-11 7-9 6-12 5-10 4-11-2-2-4 9-3 9-4 17-10 15-10 11-10 9-11 5-8 3-7 1-6-2-8-5-2-7-8-2-6-4-1-6-5-2-9h-5l1-2h4l-3-9-4-7-5-5-8-1-2-1-2 1h-6l4-7-8-1z" fill="#2D0D22"/>
<path transform="translate(490,642)" d="m0 0h3l-1 3-9 3-4 2-2 2-7 1v2l-4 1-1 4 4 1v2l-18 4 3 2 25-1 10-1 3 2-1 2-20 3-17 1-15-1-16 1h-14l-18 1-16 2-19 3-9 3-24 5-16 2-27 1-5 1-9 1-3-2 2-2 40-9 67-14 64-13z" fill="#2D0D22"/>
<path transform="translate(531,399)" d="m0 0 6 1 9 6 4 6v2l5 2 1 3-6 7-28 28-8 7-16 16-8 1-4 1 4 2-2 1-1 5-4-2-2-5 3-5 2-1 5-10 2-7-1 2-5-2-3-2h-3v-4l11-12 38-38z" fill="#50B0F5"/>
<path transform="translate(552,291)" d="m0 0 6 1 4 1 12-2h5l2 4v10l2 1-41 14-9 3-20 2-4 1 7 1v1l-60 5-33 2h-15v-1l11-1 3-1 48-5 4-1-1-4 1-8 16-4 37-8 7-2 1-3-3-1z" fill="#954FEE"/>
<path transform="translate(433,673)" d="m0 0h13l8 1 1 2-3 1-3-1-1 3-6 1h-7v1l-17 2-25 4-12 2-9 2-16 4-23 3-25 5-15 1-3 1h-37l-8-3-3-4v-2l-3-1 20-4h8l-1 2 12-1 2-1 27-1 27-4 20-5 7-2 26-3 6-1 22-1h12z" fill="#160A1B"/>
<path transform="translate(720,348)" d="m0 0 5 2-6 6 2 2-7 5-1 2-12 5-5 2-4 5-1 2h-2v2l-4 3h-2l-2 4-5 4-6 4-14 15-7 10-7 7-6 4-1 2h-2l-2 4-12 12-1 5-6 5-3-1-10 8-7 7-4 8-12 11-7-1 4-4 6-5 4-6 3-4-4 2v2l-8 6-7 6-6 8h-2l-2 4-13 9-6 5-2-1 7-7 10-8 9-10 7-8 6-6h2v-2h2v-2l11-9 5-5h2v-2l14-14 6-5 7-8 9-8 15-15 5-6 10-8 5-6 8-7 12-12 12-10 9-4 2-2z" fill="#110924"/>
<path transform="translate(578,401)" d="m0 0h4l3 12h7l4 5 1 9-16 17-29 29-4 1-3-2-1-3v-7l-5-1-1-3 1-2-6 1-1-3-2-1 2-6 13-12 17-17 7-8z" fill="#353DD1"/>
<path transform="translate(751,227)" d="m0 0h20l9 2 5 3v2l2 1-44 11-54 13-64 16-35 8-5-1 5-5 8-3 8-2 6-3 24-4 10-5 24-8 11-4 29-9 17-5 15-5z" fill="#340E58"/>
<path transform="translate(608,549)" d="m0 0h6l5 6 10 6 1 3-10 4-9 4-7 2-41 13-13 3-9 2-3-1-2-5-12-2-3-3-1-6 41-11 24-7 4-2 12-3z" fill="#FD9E38"/>
<path transform="translate(469,662)" d="m0 0h12l41 5 48 5 24 2 43 5 49 5 15 2 30 3v1h-20l-10 3-16 2h-11l-30-5-10-2-10-1-24-3-40-4-22-3-17-4-27-1-5-4-31 2-9-1 1-3z" fill="#190B3E"/>
<path transform="translate(592,433)" d="m0 0 3 3-6 7-12 13-33 33-7 8-33 33-6 7-5 5-3 2h-7l-16 8-24 13h-5l-19 10-16 8-16 9h-5v-2l-3-1 2-4 4-5 10-8 8-5 10-9 9-1 5-4 2-3 4 1 4 4 13-8 2 1-9 7-3 7 13-6h2v-2l25-12 8-6 7-7 7-6 7-8 81-81z" fill="#52E5F6"/>
<path transform="translate(469,331)" d="m0 0h14v2l4 1 12 6 5 1v2l5 5 1 3h-33l-54-3-76-3v-2l16-4 60-5z" fill="#301F96"/>
<path transform="translate(483,543)" d="m0 0h7v2l-23 13-20 11-22 13-23 13 26-5 15-3h7l-3 2-5 1-1 3-29 6h-6l-8 3-8 2-20 11-10 6-1 12 4-2 7 1v1l-11 2h-5v2l-14 2-21 12-13 7-3-1 1-2h-2v-2l-14 8-11 7-2-1 11-8 11-7 21-14 16-9 25-14 34-20 12-8 15-9 7-4v-4l11-6 7-1 24-13z" fill="#FBF8CB"/>
<path transform="translate(685,308)" d="m0 0v3l-7 11 8-2 2 2 2 10-14 14-7 8-14 14-4-3-3-2-7 1-9 7-6 3h-3l2-4 9-10 4-6-4-1-6-2 2-4 9-10 9-9 21-12z" fill="#9039D3"/>
<path transform="translate(499,479)" d="m0 0 4 3v7l-5 10 3-1v2l2 1-21 21-6 5-4 5-11 9-6 7-2 7 2 1-12 6h-3l1-6 8-7-9 5-4 2-4-5h-3l-4 5-6 3h-5v-2l14-11 8-8 8-7 10-9 11-11 8-7 21-21z" fill="#2BA8E5"/>
<path transform="translate(497,606)" d="m0 0 4 1-13 6-17 5-9 3-10 2-6 1h-9l-13 3-21 7-9 2-17 2-5 1-1 2-14 4-10 2 4 4v2h9l-4 2-13 4-36 12-24 10-20 6-8 2h-6l4-3 16-8 5-3 12-4v-2l16-8 17-8 21-9 9-5 1-2h4v-2l23-3 21-4 10-2 29-6 15-4 26-5z" fill="#FDA03A"/>
<path transform="translate(283,505)" d="m0 0 4 1v2l4 1-1 4-13 12-5 4-7 8-7 7-7 10h-2l-2 4-9 15-7 14-4 13-1 5v14l4 13 7 9 10 6-1 2-6-1-12-6-8-9-4-11-2-10 1-15 4-15 8-16 10-16 4-5 30-30 11-9z" fill="#161557"/>
<path transform="translate(529,664)" d="m0 0 22 1 72 7 42 5h7l1-6 13-2 2-2 7 1 35 11 23 7 11 3v2l5 1 3 2-28-2-31-4-22-2-22-3-32-3-43-5-53-5-12-3z" fill="#934BE9"/>
<path transform="translate(728,344)" d="m0 0 10 1 21 6 20 8 14 8 10 9 7 9 5 10 3 13v11l-2 15-7 21-11 20-10 14-12 14-7 8-11 11-8 7-12 10-3 1 2-5 3-3-4-2-1-5 11-9 7-5 5-1v4h1l14-14 14-19 4-6-1-3-2-2-1 6h-2l-1 2-4-1 2-4 8-10 7-10 9-19 4-14v-19l-2-9-2-5v-3l-4-1-7-9-3-2 5 6-1 7-4-5-7-8-8-7-10-6-15-7-24-7z" fill="#FC8536"/>
<path transform="translate(516,327)" d="m0 0h12l-1 2h26l-6 7h-3v4l26 3 16-7 9-1-3 2-14 6-1 5v3l2 1-12 6h-3v2h-6l-1-4-40-3-20-1v-1h13l-4-6-7-2v-2l-16-8v-2l-2-1z" fill="#5022BE"/>
<path transform="translate(682,561)" d="m0 0 6 1 2 1v2l-10 6-10 5h2l-2 5-37 17-31 12-25 9-33 10-38 10h-5l-1-5 52-14 29-9 25-9 22-9 3-2-2-4-3-1h-11l-13 4-15 6-7 1 2-2 33-13 10-1 16-3 1-4 5-3 16-1 5-2 5-5z" fill="#F4573A"/>
<path transform="translate(508,378)" d="m0 0 2 1-27 16-40 24-21 13-28 19h-4l-12 7-17 12-3-1-1-5 2-3-11 7-9 6-2-1v-2l-4-2 4-4 11-7 3-3 8-5 5-2 3 3 1 2 12-7 21-13 20-12 22-12 16-8 21-10 18-8z" fill="#2876CE"/>
<path transform="translate(667,269)" d="m0 0 2 1-1 11-10 4-52 15-20 6-5-1-1-10-1-4-19 3-5-2 1-2 34-8 7-1h8l5 1 39-9z" fill="#D355FA"/>
<path transform="translate(828,232)" d="m0 0 2 1-3 2-2 10-3 6-9 9-5 11-3 8-10 5-6 7-5 4-4 6-10 3-10 7-6 7v3l-2 1v6l-3 5h-2l-1 3-8 1-6 5-2 1-10-1 3-1 2-5h2l1-4 6-9 12-12 7-6 8-5 11-7h2v-2h2l2-4 11-9 9-11 4-5 7-17 1-5z" fill="#120924"/>
<path transform="translate(517,575)" d="m0 0 4 1 2 6 1 1 12 2 2 3v3l3 1-23 7-29 7-23 4-2-9-3-4 1-8 3-2 28-6z" fill="#FDBD53"/>
<path transform="translate(778,366)" d="m0 0 4 2 10 10 2 5h-2l-1 8v16l-4 14-6 14-7 9-5 6-4 6-8 8-9 7-11 7-13 9-12 5-9 1-10-6 3-1 8 1 10-4 7-3 12-6 9-7 4-1v-2l10-8h2v-2l5-5 11-15 5-10 2-11 1-11-2-4h-9l-1 3-1-3-4-2-3-3v-2h-3v-2h2l2-4 6-7 6-5z" fill="#4B132A"/>
<path transform="translate(628,606)" d="m0 0h11l4 4h18l3 2v2l4 1 16 8 9 5 16 9 11 8 7 5v2h2v2l6 2 8 8 5 10h-4l-27-15-24-14-25-14-17-10-10-5v-2l-6-2-6-4z" fill="#160B39"/>
<path transform="translate(680,522)" d="m0 0 5 2 11 9-5 5-19 9-13 7v2l-3-1-23 9-4-1v-2l-6-2-6-5-3-4-3-2 23-8 25-9z" fill="#FEBE54"/>
<path transform="translate(825,367)" d="m0 0h2l3 5 4 3 5 1-1 2-3 1-7 9v7l-3 4v7l2 18-3 14-5 15-9 15-5 7-4 8-4 4h-2l-2 4-4 2-2 4-10 10-4 2-2 5-7 5-3-1 13-13 9-11 10-13 9-15 8-16 5-16 2-15v-11l-4-16-6-10-4-6 1-1 12-1z" fill="#651A35"/>
<path transform="translate(392,351)" d="m0 0h17l72 4 4 5 4 2v2l4 1v2l3 1-2 1-9 1-9-1-5 1-7 3-12 4-4-2v-6h-2l-1-2-9-2h-2l6 3-3 5-10 2h-3l-1-4-3-1v-2l-3-1 10-1-15-4-9-2-13-5-5-2v-1z" fill="#110925"/>
<path transform="translate(755,220)" d="m0 0h19l11 2 9 6 1 3h5l-4 2-11 1v-2l-5-2-9-2h-20l-19 5-17 6-25 7-18 6-22 8-13 5-7 2-18 3-8 4-10 1 2-2 7-3 4-4 20-6 4-2h4l1-2 26-9 9-3 17-5 8-3 24-7 11-3 9-3z" fill="#2C0D42"/>
<path transform="translate(355,575)" d="m0 0 1 3-7 8-12 12-1 2h-2v2h-2l-1 4 7 6 4-1 14-10 11-8 4-3 2 1-15 12-8 7-2 4-12 7-11 4-11 8-13 9-11 9-8 6-9 9-12 9-4 5-9 5-4 2 2-4 42-42 7-8 22-22 8-7 28-28z" fill="#FBFACD"/>
<path transform="translate(583,643)" d="m0 0 4 1-1 5 5 1 7 1 16 2 1 5h-11l-24-2-6-1 2 3 12 5v5h-17l-42-4v3l2 1h-9l-48-6-3-2 13-1h14l10 1h12l25-7 35-9z" fill="#501378"/>
<path transform="translate(319,467)" d="m0 0 7 2v2l5 1-2 3 2 3-6 7-11 9-4 4-5 2-9 8-5 3v-2l-4-1v-2l-5 1-14 12-8 7-7 8-8 8-2 3h-2l-2 4-10 15-8 16-3 7-1-3 5-12 8-15 13-19 9-11 9-10 15-15 8-7 13-11 13-10z" fill="#2874CD"/>
<path transform="translate(617,617)" d="m0 0h15l2 1-1 3h-3v2l-23 7-5 2-21 5 12 3v2l-17 4-35 9-21 6h-12l-10-1v-1h5l2-4 39-9 27-7 5-2-9-4 1-4 5-2 4-3 15-3 3-2z" fill="#340E57"/>
<path transform="translate(693,593)" d="m0 0h7l1 2-1 6-2 4-5-6-14 5v3l1 4 9 6 19 9 9 6 10 7 11 9 10 10 4 6 7 10 1 7h-4l-9-5-1-4-5-9-6-6-6-3v-2h-2v-2l-5-2-11-9-17-9-8-5-22-11v-2l-4-2-1-2 4-3 8-1 13-6 6-3h3z" fill="#120925"/>
<path transform="translate(708,342)" d="m0 0h8l2 2-5 5-7 6-9 4-11 10h-2l-2 4-12 12-5 4-10 10h-2l-2 4-5 6-8 7-5 5-11 10-2 3h-2l-2 4-13 12-4 5h-2v2l-11 9-5 5h-2v2l-4 1-1-3 5-6 8-7 9-9 8-10 13-12 12-12 8-7 11-11 6-7 22-22 3-5 13-10 4-3 4-1 8-5z" fill="#160A38"/>
<path transform="translate(297,514)" d="m0 0 5 2-17 17-10 9-13 14-13 17-8 13-6 13-3 12-1 14-5-1-1-5v-14l4-15 7-16 5-7 5-9 3-4h2l2-5 12-13 10-11 5-1 4-4 9-2 4-2z" fill="#2877CF"/>
<path transform="translate(756,245)" d="m0 0h5l-1 4-6 4-8 6-23 13-25 15-2-1v-2l-6-5-2-4 8-4 20-9 5-3 1-2-14 2-28 7h-5v-2l-7 1 2-2 64-16 6 1 2 1z" fill="#FABBD3"/>
<path transform="translate(675,519)" d="m0 0 4 1 1 3-29 12-17 6-26 9-10 4-12 3-8 3-39 11-68 16-15 3-4-1v-1l-5-1v-1l40-9 43-10 48-13 41-13 27-10z" fill="#FDD96A"/>
<path transform="translate(804,230)" d="m0 0h5l-2 1-2 5v6l-16 8-5 2-1 7-4 6-11 12-11 9-8 7-21 12-10 8-9 9v-3l26-26 7-8 14-14 7-8 12-12 9-11 5-6v-1z" fill="#501378"/>
<path transform="translate(650,319)" d="m0 0 2 1-10 9-11 12-14 14-7 8-12 12-4-1-5-4v-2h-2l-6-9v-3l21-12h2l1-2 5-3 10-4 22-12z" fill="#DD72FA"/>
<path transform="translate(733,288)" d="m0 0 3 4-6 7-21 21-7 8-36 36-7 8-56 56-7 8h-2l-2-2-2-1 26-26 9-10 13-12 9-10 27-27 7-8 8-8 8-7 15-16z" fill="#DA6EF9"/>
<path transform="translate(319,344)" d="m0 0 55 1 70 3 87 5 26 2 5 1 1 3h-25l-12-1-66-3-88-5-59-3v-2z" fill="#6FE3F2"/>
<path transform="translate(761,215)" d="m0 0h16l13 4 8 4 5 5 1 3h-9l-5-5-8-4-8-1h-19l-23 5-6 2-26 8-11 3-8 3-12 4-16 5-15 5-5 1-17 3-22 5-18 5-4-1 19-7 21-6 17-5 36-9 18-7 21-6 9-3 9-2 10-3 6-2 14-3z" fill="#1C0A2F"/>
<path transform="translate(652,622)" d="m0 0 6 2-1 4 4 4 10 5 7 5-4 3-2 1h-6l-2-1h-6l-2 1-9 1-4 2h-9l-10-3-5-2-8-1-8-3-3-2 41-12 10-3z" fill="#964EED"/>
<path transform="translate(543,372)" d="m0 0h6l-1 4-14 14-7 8-60 60-5-1-8 7v-3l7-7 1-2h2l2-5 7-8 14-14 8-7 8-9 5-5 7-10 16-16z" fill="#17165A"/>
<path transform="translate(735,522)" d="m0 0h2l-1 8 5 1-1 2h-2l-2 5-2 4-24 16-15 9-22 12-3-1 1-1-3-1 19-10 12-7-5 1-3-1v-2l-3-1 3-6 16-12 13-8 10-6z" fill="#FDBD53"/>
<path transform="translate(482,558)" d="m0 0 3 1-2 5 6 3-1 4-11 3-4 1v2l-4 2-10 2-7 3v2l-48 10-3-1 24-14 22-13 4 1 10-4 9-2z" fill="#361545"/>
<path transform="translate(789,249)" d="m0 0h3l-1 8-6 9-12 12-9 7-5 5-10 8-6 4-8 7-12 9-6 5-5 5-8 9-10 8-17 13-6 5h-2l-2 5-8 7-3-1 8-8 7-8 28-28 8-7 14-14 14-9 14-8 10-9 11-9 10-11 3-6 1-5z" fill="#330E56"/>
<path transform="translate(450,547)" d="m0 0 2 1-9 7-2 3v5l-10 6-27 13-17 10h-5v-2l-3-1 2-4 4-5 10-8 8-5 10-9 9-1 5-4 2-3 4 1 4 4z" fill="#49D0E7"/>
<path transform="translate(630,650)" d="m0 0 16 4 24 7 18 5-1 4-11 1-3 3v4l-17-1-33-4v-1l10-2-1-3-7-4v-3l16 1-4-6-3-2-4-1z" fill="#5323BF"/>
<path transform="translate(750,232)" d="m0 0h18l9 3 2 2-56 14-34 8-16 4-3-1 5-5 5-3 21-6 17-6 19-7z" fill="#501378"/>
<path transform="translate(597,639)" d="m0 0 9 1 5 2 12 2 8 3 19 6 16 3 27 8 10 3 29 9v-5l-5-2-18-10 2-2 5 3 7 1 24 14 26 15 6 4-2 1-13-4v-2l-11-2-23-7-45-14-15-4-24-7-30-8-20-5-2-2z" fill="#DD71FA"/>
<path transform="translate(412,335)" d="m0 0h23l3 3 4 3v2l2 1v3h5v1h-26l-76-3v-2l16-4z" fill="#300F57"/>
<path transform="translate(810,447)" d="m0 0 1 3-8 16-9 15-10 13-13 15-13 13-8 7-12 10-3 1 2-5 3-3-4-2-1-5 11-9 7-5 5-1v4h1l14-14 14-19 4-6-1-3-2-2-1 6h-2l-1 2-4-1 2-4 8-10 7-10 2 2 1 8z" fill="#F4563A"/>
<path transform="translate(324,651)" d="m0 0 10 1 4 3v2l17-4h5l-4 2-13 4-36 12-24 10-20 6-8 2h-6l4-3 16-8 5-3 12-4v-2l16-8 17-8z" fill="#FEBF54"/>
<path transform="translate(386,605)" d="m0 0 2 1v16l2 3 17-2v-1l23-4 23-5h3l1 3-18 4-11 3-30 6-21 4-5 1h-7l2-2-8 1-1-5 1-7 13-8z" fill="#FEF386"/>
<path transform="translate(787,234)" d="m0 0 3 1-7 7-9 11-16 16-7 8-15 15-2-2 1-4 38-38 1-3-21 13-48 28-13 7-3-1 5-5 7-3 16-9 15-9 17-10 9-7 2-2-4-1-14 4-4-1v-3l32-8z" fill="#F8E9D0"/>
<path transform="translate(839,367)" d="m0 0 3 3 1 4 2 1 2 10 3 31v9l-4 13-4 12-5 14-7 12-4 5h-2l-1 5-3 6-6 7-4 4-6 8-5 7h-2v4h-2v9l-2-3-1-6 7-14 8-9 8-10 6-9 9-14 6-14 4-11 4-18v-11l-2-16v-20l-3-6z" fill="#1C0A1D"/>
<path transform="translate(630,592)" d="m0 0 1 3-1 4-15 6-27 10-30 10-36 10-16 4h-5l-1-5 52-14 29-9 25-9 22-9z" fill="#F4563B"/>
<path transform="translate(676,487)" d="m0 0 2 1-10 7-13 8-12 7-10 5-7 3-26 11-12 5-18 6-8 3-12 1h-17v-3l2-2 25-3 8-2 9-3 11-3 4-2h3l1-2 2 1v-2l16-6 7-3 20-9 10-6 4-1 9-5 6-4z" fill="#1C0A1D"/>
<path transform="translate(489,378)" d="m0 0 3 1-35 17-19 10-22 12-23 13-27 16-2 1-1-4 15-12v-2l34-18 19-9 14-7 31-13z" fill="#2BA0E1"/>
<path transform="translate(389,450)" d="m0 0 2 1-1 3-19 13-18 14-16 12-14 12-11 9-4 1v-3l10-10 16-12-7-5 5-6 6-4 4-4 15-10 4-1-3 5 1 4 5-2 17-12z" fill="#4CDEF3"/>
<path transform="translate(437,420)" d="m0 0 1 2-19 12-25 17h-4l-12 7-17 12-3-1-1-5 2-3-11 7-9 6-2-1v-2l-4-2 4-4 11-7 3-3 8-5 5-2 3 3 1 2 12-7 3-2h3l2 4 5-1 16-9 14-10z" fill="#2AA4E3"/>
<path transform="translate(677,496)" d="m0 0 3 1-1 5-5 1-1 4-8 7h-2l-1 3-8 6-17 8-7 2v2l-1 1 2 1-12 5-38 12-5-1 4-4 11-3 26-13 11-6 9-4 16-8 8-7 9-6 5-3z" fill="#4B132A"/>
<path transform="translate(658,622)" d="m0 0h7l10 3 16 8 17 9 16 12 9 8v3h2v3l-5-2-27-15-42-24-5-4z" fill="#1C0F4E"/>
<path transform="translate(746,335)" d="m0 0h5v2h12l5 1h16l15 4 13 5 7 4v2l10 3 5 4 5 5-1 2-3-3-9-3-10-4-14-8-12-4h-21l-8 1-9-1v-2l-2 1h-6v2l-11-1-5-1 1-3 5-1 5-4z" fill="#1C0A1D"/>
<path transform="translate(796,246)" d="m0 0h2l-1 8-6 11-16 16-14 11-7 6-8 5-5 5-6 5h-2v2l-9 7-6 7-5 5-4 5h-2l-2 4-8 6-5 5-4 3h-6l-5 2 2-4 15-11 12-10 7-8 3-1 2-4 15-12 8-6 6-5 6-4 8-7h2l1-3 12-9 7-8 4-5 4-8 1-6z" fill="#2C0D43"/>
<path transform="translate(688,667)" d="m0 0 7 1 35 11 17 5v3h-9l-64-8-2-4 2-4 2-1 10-1z" fill="#6238E1"/>
<path transform="translate(608,549)" d="m0 0h6l5 6 10 6 1 3-10 4-9 4-10 2-4-6-12-6-1-3 2-3 15-4z" fill="#FD9F39"/>
<path transform="translate(688,486)" d="m0 0h3l-1 4-7 6 6 8 3 3v2l3 1-16 8-28 12-18 7h-6l1-2h2v-2l13-6 14-7 5-4 5-5 6-5 1-3 5-2 1-4h-2l2-4 5-5z" fill="#621834"/>
<path transform="translate(507,544)" d="m0 0h7l3 2-6 5h-2v2l-1 1 5 2v2l-7 4-15 5h-5l-4-3 2-5-10 3-7 3-12 3-6 2v-3l14-8 10-1 10-4v-2l8-6 2-1-1 5 7-3z" fill="#290B36"/>
<path transform="translate(272,544)" d="m0 0 2 1-3 5-2 4-10 11-11 15-8 15-4 13-1 12 4 13 4 5 10 5 11 1 12-2-4 3-14 5h-12l-1-3-9-6-8-11-1-7 3 1 2-18 4-12 9-17 13-17 10-11z" fill="#4CCFF0"/>
<path transform="translate(469,662)" d="m0 0h12l41 5 19 2 1 3 6 2 11 2 3 2 5 1v1l-17-1-25-5-10-1-21-1-5-4-31 2-9-1 1-3z" fill="#1D0A31"/>
<path transform="translate(482,356)" d="m0 0h18l26 1 12 1-5 5h-2v2l-5 1-2 4h-3l-4-1-7 4-12 2-1-4h-2v-3l-2-1v-2l-4-1-1-2-8-4z" fill="#1B0F4F"/>
<path transform="translate(550,557)" d="m0 0 8 1-2 3-34 9-61 14-11 1 2-2 10-4 7-1 4-1v-2l11-4 16-3 26-7 13-3z" fill="#4C132C"/>
<path transform="translate(602,267)" d="m0 0 3 1-2 3-9 3-1 3-5 3-1 4-48 11-17 4h-6l-1-2 11-3 10-6 20-6 14-3 8-4 16-6z" fill="#1D0E4D"/>
<path transform="translate(574,638)" d="m0 0 9 1 1 4-8 3-35 9-21 6h-12l-10-1v-1h5l2-4 39-9 27-7z" fill="#320E54"/>
<path transform="translate(442,403)" d="m0 0h2l1 6-21 11-20 12-21 13-13 8-3 1-1-5-2-1 10-7 16-9 21-12 29-16z" fill="#0D091D"/>
<path transform="translate(774,244)" d="m0 0 2 1-9 10-28 28-7-1-5 3-5-1v-5l-3-1 5-4 29-17z" fill="#DD71FB"/>
<path transform="translate(755,220)" d="m0 0h19l11 2 9 6 1 3h5l-4 2h-7v-3l-6-4-7-2h-21l-22 5-33 11-16 4-27 9-22 7h-7l3-2h4l1-2 26-9 9-3 17-5 8-3 24-7 11-3 9-3z" fill="#290B36"/>
<path transform="translate(249,554)" d="m0 0 1 2 2 1 1 7h-2l-1 8-7 10-8 17-3 12-1 14-5-1-1-5v-14l4-15 7-16 5-7 5-9z" fill="#2875CF"/>
<path transform="translate(596,447)" d="m0 0v3l-20 20-2 3-5 3-8 7-2 3h-2l-2 4-8 7-10 7-4 3h-2l-1 3-1-4 10-10 4-7 21-21 4-1 10-9 6-4 6-3z" fill="#151448"/>
<path transform="translate(517,368)" d="m0 0 4 1v4l-9 5-10 4-19 9-12 5-25 12-2-1-1-2 1-3 27-14 19-9h2v-2l5-1 6-3 9-2z" fill="#171759"/>
<path transform="translate(360,652)" d="m0 0h9l-2 1 1 5-6 4-15 5-40 10-7-3 2-2 16-6 33-11 9-1z" fill="#FD9E38"/>
<path transform="translate(756,395)" d="m0 0 5 5 5 4 4 4 1 6-3 10-5 9-9 10-7 8-10 8-11 7-18 11-15 5h-3v-2l6-4 12-5 8-5 6-4 15-9 7-6h2l2-4 7-8 6-8 4-11-1-4-5-10-4-5z" fill="#1C0A1D"/>
<path transform="translate(653,308)" d="m0 0h7l-2 3-11 3-30 4-39 4-32 3-30 2h-7l-1-2 25-3 27-3 50-5z" fill="#F7B5D7"/>
<path transform="translate(575,326)" d="m0 0 7 1 4 10-16 7-26-3-1-3 1-2h3l2-4 3-4z" fill="#6038E1"/>
<path transform="translate(328,471)" d="m0 0 3 1-2 3 2 3-6 7-11 9-4 4-5 2-9 8-5 3v-2l-4-1v-2h-3l2-4 12-10 6-4h2l2-4 7-5 9-5z" fill="#2F1E94"/>
<path transform="translate(283,505)" d="m0 0 4 1v2l4 1-1 4-13 12-5 4-7 8-12 12v-10l-2 1v-5l20-20 11-9z" fill="#0D091B"/>
<path transform="translate(723,575)" d="m0 0 2 2-4 3h-3l-1 3-4 3 2 5v8h-3v5l-6 5-6-5-1-7 1-3h-6l-10 5-16 7-5-1 1-2h2v-2l26-11 12-4 5-4 9-5z" fill="#1C0A1D"/>
<path transform="translate(581,558)" d="m0 0 4 1 1 3 12 6 3 4v3l-32 10h-2v-9-4l5-5 7-4v-4z" fill="#FC8935"/>
<path transform="translate(440,349)" d="m0 0h18l73 4 26 2 5 1 1 3h-25l-12-1-66-3-4-2h2v-2l-18-1z" fill="#8981F3"/>
<path transform="translate(642,616)" d="m0 0 6 2 5 4-4 3-25 7-31 9-14-4v-1l14-3 12-3 21-7h4v-2z" fill="#631EA5"/>
<path transform="translate(491,440)" d="m0 0 1 3 10 2 3 5-8 12v6l5 5-4 4-8 1-4 1 4 2-2 1-1 5-4-2-2-5 3-5 2-1 5-10 2-7-1 2-5-2-3-2h-3v-4z" fill="#47CEE7"/>
<path transform="translate(802,243)" d="m0 0 2 1-3 10-5 8-6 8-11 11h-2v2h-2l-1 3-11 9-8 6-7 4-5 5-12 9-5 3-2 6-7 10-1 2-7 1-1 4-10 6-2-2 10-8 7-8 5-5 7-8 6-5h2v-2l10-8h2l1-3 11-7 11-10 10-8 8-8 3-4h2l2-5 4-9 1-6z" fill="#290B36"/>
<path transform="translate(434,353)" d="m0 0h12l35 2 4 5 4 2v2l4 1v2l3 1-2 1-9 1-9-1-6-1-8-5-20-5-8-4z" fill="#160B3A"/>
<path transform="translate(419,628)" d="m0 0 1 4-3 5v3l9-2v-2h5v3l-26 6-17 3h-8l1-7 3-4 26-6z" fill="#F4563B"/>
<path transform="translate(592,433)" d="m0 0 3 3-6 7-12 13-38 38v-2l-3-1 1-4 53-53z" fill="#4BAAF1"/>
<path transform="translate(376,431)" d="m0 0 3 1-11 9-4 3-1 5-9 5-5 2-1 3-17 11-5 1v-2h-6l2-4 24-16 20-12z" fill="#4FE7F6"/>
<path transform="translate(490,642)" d="m0 0h3l-1 3-9 3-4 2-2 2-7 1v2l-4 1-1 3-2 1h-43l-3-2 51-11z" fill="#4C132A"/>
<path transform="translate(856,216)" d="m0 0h5l-4 3-25 12-26 12-2-1v-6l3-5-1-2 22-6z" fill="#310E52"/>
<path transform="translate(498,635)" d="m0 0h2l1 5-37 9-33 7h-9l-1-3 10-3 19-4 16-4z" fill="#FD9738"/>
<path transform="translate(389,328)" d="m0 0h3l1 4-2 3h21v1l-49 4-13 3h-3v2h-15l-8-1 3-2 24-5 16-4 15-3z" fill="#3739CA"/>
<path transform="translate(476,628)" d="m0 0 3 1 3 5v3l2 2-32 7-4-1-2-8-2-2 26-6z" fill="#F4563B"/>
<path transform="translate(675,519)" d="m0 0 4 1 1 3-29 12-17 6-26 9-6 2-4-1 1-2h2v-2l35-12 34-14z" fill="#FDE57A"/>
<path transform="translate(433,673)" d="m0 0h13l8 1 1 2-7 1h-13l-21 1-10 1h-9l-8 2-9 1h-16l-8 3-10 2-8 1-7 1-1-2 26-6 7-2 26-3 6-1 22-1h12z" fill="#1B091D"/>
<path transform="translate(345,637)" d="m0 0h5l-2 4-21 10-19 8-16 8-6 2v2l-7 4-3-1 6-6 2-1 1-5 13-8 4-1v2h2v2l6-2 20-11 10-6z" fill="#FEDF64"/>
<path transform="translate(739,564)" d="m0 0h2v2l6 2 4 6 5 2-6 7-5 4-2 1-2 4h-1v-6l-4-2-8-6v-2h3v-2h3v-3h2l1-5z" fill="#1E0E46"/>
<path transform="translate(791,370)" d="m0 0 7 6 4 5v2l4 1 2 7 2 6 1 4v15h-1l-2-9-3-2-1 10h-2l-3 10-4 2 2-5 3-10v-14l-4-12v-8l-5-6z" fill="#FDEF83"/>
<path transform="translate(359,460)" d="m0 0 2 1-3 4 2 6-24 18-5-1-4-4 9-8 9-7z" fill="#45C8E6"/>
<path transform="translate(507,324)" d="m0 0h6l-4 2 7 1v1l-60 5-33 2h-15v-1l11-1 3-1 48-5z" fill="#8C7AF3"/>
<path transform="translate(657,625)" d="m0 0 6 2 28 16 25 14 3 3h-4l-5-2-2 1-23-13-9-5-12-7-6-3-2-5z" fill="#DA71F8"/>
<path transform="translate(728,344)" d="m0 0 10 1 21 6 20 8 14 8v3h-2l4 6 2 2-1 7-4-5-7-8-8-7-10-6-15-7-24-7z" fill="#FA823A"/>
<path transform="translate(766,463)" d="m0 0 4 2-5 5-11 10-17 12-16 10-5 3-3-1 2-5 20-12 17-13z" fill="#FDE57B"/>
<path transform="translate(798,441)" d="m0 0 4 2-2 6-9 14-8 10-7 1v-11l10-9z" fill="#FEBD53"/>
<path transform="translate(797,363)" d="m0 0h8l7 3 9 1 5-1 1-2 1 3 5 1 4 6v2l-4-1-5-4-1-4-11 8-14 1-9-8-3-3z" fill="#4B132A"/>
<path transform="translate(628,394)" d="m0 0 7 1-6 7-26 26-7 8h-2l-2-2-2-1 26-26 9-10z" fill="#8C80F4"/>
<path transform="translate(363,448)" d="m0 0 3 1 1 6-8 6-11 7-9 6-2-1v-2l-4-2 4-4 11-7 3-3 8-5z" fill="#301F95"/>
<path transform="translate(511,342)" d="m0 0h19l4 3 6 7h6l1 1 8 1v1h-13l-25-2-5-1z" fill="#383BD3"/>
<path transform="translate(497,606)" d="m0 0 4 1-13 6-17 5-9 3-10 2-6 1h-13v-3l19-5 26-5z" fill="#FC8735"/>
<path transform="translate(597,548)" d="m0 0 4 1-2 2 2 2-15 4-8 3-31 9-4-1v-2l2-2 4-2 36-10z" fill="#FDD467"/>
<path transform="translate(268,512)" d="m0 0 2 2-1 4-24 24-2 3h-2l-2 4-10 15-8 16-3 7-1-3 5-12 8-15 13-19 9-11 9-10 4-4z" fill="#343AC7"/>
<path transform="translate(710,657)" d="m0 0 6 3 7 1 24 14 26 15 6 4-2 1-13-4v-2l-6-1-2-2-5-4-26-14-16-9z" fill="#F3B4D6"/>
<path transform="translate(484,659)" d="m0 0h14l14 2 22 2v1h-5v3l2 1h-9l-48-6-3-2z" fill="#5E1B9A"/>
<path transform="translate(219,619)" d="m0 0 5 1 2-1 4 13 7 9 10 6-1 2-6-1-12-6-8-9-3-8 1-5z" fill="#300F5B"/>
<path transform="translate(628,606)" d="m0 0h11l4 4h18l3 2v2l4 1 11 6-2 1-13-4-9-1-2-1v2h-2l-1 2-9-4v-2l-6-2-6-4z" fill="#1C0A2F"/>
<path transform="translate(540,359)" d="m0 0h18l5 1-6 7-7 7-1-2-8 2-7 4-2-1 2-5 3-3h2l1-3h2l1-5z" fill="#1B0E4C"/>
<path transform="translate(529,664)" d="m0 0 22 1 31 3 1 4-2 1h-11l-35-4-6-2z" fill="#8935CB"/>
<path transform="translate(779,241)" d="m0 0 2 1-2 4-6 8-15 15-7 8-15 15-2-2 1-4 38-38 4-6z" fill="#F7B2D8"/>
<path transform="translate(406,347)" d="m0 0h17l21 1v1l11 1 3 1v2l-2 1-30-1-38-2v-1l18-1z" fill="#4AA9ED"/>
<path transform="translate(708,342)" d="m0 0h8l2 2-5 5-7 6-9 4-11 10h-2l-2 4-12 12-2-1 5-6h2l2-4h2l2-5 5-5 8-7 4-6 5-4 5-3z" fill="#1C0A2E"/>
<path transform="translate(691,487)" d="m0 0 7 6 5 3-2 1-1 5-2 5 1 2-4 1-3-1-9-11-2-2 9-7z" fill="#F46A3D"/>
<path transform="translate(665,563)" d="m0 0h8l-6 7-4 1-16 1-5 3-1 3-16 4-7 1 3-3 19-9 14-6z" fill="#FD8A35"/>
<path transform="translate(328,471)" d="m0 0 3 1-2 3 2 3-6 7-11 9-4 4-2-1 3-3-1-4-4-4 9-7 9-5z" fill="#287AD0"/>
<path transform="translate(724,546)" d="m0 0 2 1-11 8-20 12-22 12-3-1 1-1-3-1 19-10 21-12 6-4 7-2z" fill="#FCDCC0"/>
<path transform="translate(597,639)" d="m0 0 9 1 5 2 12 2 8 3 28 9 12 3 12 4v1l-10-1-12-4-30-8-35-9-2-2z" fill="#F4ACDB"/>
<path transform="translate(469,662)" d="m0 0h12l16 2v1h-5v2l-13 2-25 1-5-1 1-3z" fill="#290B37"/>
<path transform="translate(380,584)" d="m0 0 2 1-3 4 4 1 2 3-26 14-10 6-2-1 9-9 12-9 10-8z" fill="#59F3FA"/>
<path transform="translate(787,469)" d="m0 0 5 3-1 5-12 16-6 1-3-9 9-9 5 1 3-1z" fill="#FD8A35"/>
<path transform="translate(725,350)" d="m0 0h6l5 6 6 11v5l-5-1-4-6-5-4-5-2-4-1-1-3 3-1 1-3z" fill="#1C0A1D"/>
<path transform="translate(516,533)" d="m0 0 1 4v3l10-4 8-1 1 4-4 6h-25l-6 1 5-4z" fill="#120924"/>
<path transform="translate(751,363)" d="m0 0 4 2 5 5v6l-5 4-2 3h-2v-2l-4-2-2-2v-3h-2l1-4 5-4z" fill="#782662"/>
<path transform="translate(807,432)" d="m0 0h1l1 6 4 2-1 7h-2l-2 5-8 12h-1l-1-14 8-16z" fill="#FD9C38"/>
<path transform="translate(666,576)" d="m0 0h6l-2 5-37 17-3-1 1-4 26-12z" fill="#FC8635"/>
<path transform="translate(230,631)" d="m0 0 5 3 5 5 4 2 15 3 11-1 6-1-4 3-14 5h-12l-1-3-9-6-6-8z" fill="#70E3F4"/>
<path transform="translate(498,635)" d="m0 0h2l1 5-33 8-5-1 2-2-4-2z" fill="#FB8436"/>
<path transform="translate(696,537)" d="m0 0 2 1-2 4-9 6-12 6-11 6-1-5-2-1z" fill="#F4593A"/>
<path transform="translate(751,254)" d="m0 0m-1 1m-1 1m-1 1m-2 1h2v3l-43 25-13 7-3-1 5-5 7-3 16-9 15-9z" fill="#FCF1CD"/>
<path transform="translate(440,349)" d="m0 0h18l39 2v1l-7 1-1 2h5v1h-13l-21-1-4-2h2v-2l-18-1z" fill="#837EEF"/>
<path transform="translate(492,534)" d="m0 0h3l3 1v2l-5 5-3 2h-7l-16 8-24 13-4-2 14-7h2v-2l25-12 7-5 5 1z" fill="#5AEDF7"/>
<path transform="translate(475,393)" d="m0 0 2 1-10 8-16 10-8 3-11 1 3-3 16-8z" fill="#3538CA"/>
<path transform="translate(492,545)" d="m0 0 1 2-3 6-8 6-15 6-12 3-6 2v-3l14-8 10-1 10-4v-2l8-6z" fill="#151447"/>
<path transform="translate(319,467)" d="m0 0 7 2v2l2 1-10 7-7 4-4 3h-2l-1-3-2-1v-2l16-12z" fill="#2CA5E3"/>
<path transform="translate(508,378)" d="m0 0 2 1-27 16-35 21h-2l2-4 10-5 10-7 8-6 1-2 17-7z" fill="#2876CF"/>
<path transform="translate(234,604)" d="m0 0h1v16l4 13 4 5 5 4-5-1-7-4-5-5h-2l-2-5 1-4 2 1 2-18z" fill="#54D8F0"/>
<path transform="translate(349,452)" d="m0 0 4 3-4 1-1 3-17 11-5 1v-2h-6l2-4 7-5 2 1-2 2 6-2 10-7z" fill="#42C2E5"/>
<path transform="translate(453,613)" d="m0 0h3l1 3-18 4-11 3-14 3h-10v-2l3-2 23-4z" fill="#FEF285"/>
<path transform="translate(705,589)" d="m0 0h2v2l4 2v4h2l-1 7-6 5-6-5-1-7z" fill="#1B0E42"/>
<path transform="translate(354,389)" d="m0 0h2l7 8 2 2-8 7-1 5-2-3-7-8-2-2 4-2z" fill="#2A5BBC"/>
<path transform="translate(767,547)" d="m0 0 11 1v3h2v2h-2l1 3-12 3-6-3v-3l-2-1 4-4z" fill="#160A1B"/>
<path transform="translate(507,544)" d="m0 0h7l3 2-6 5h-2v2l-4 1-5-1h-5l-8 5-4-1 8-6 8-4z" fill="#1C0A2F"/>
<path transform="translate(590,337)" d="m0 0h2l2 7-14 8-3-1-1-7 4-3z" fill="#6038E0"/>
<path transform="translate(723,575)" d="m0 0 2 2-4 3h-3l-1 3-4 3 2 5v8h-2v-2h-2l-2-5-2-1v-2h-2l-2 4-2-1 5-8 12-7z" fill="#1E0A1E"/>
<path transform="translate(554,472)" d="m0 0 2 3-2 4-15 15v-2l-3-1 1-4 14-14z" fill="#46C5E8"/>
<path transform="translate(490,362)" d="m0 0 10 1 5 2h3l2 2-1 5-8 3-4-1v-3h-2v-3l-2-1v-2l-4-2z" fill="#151548"/>
<path transform="translate(452,616)" d="m0 0h9l1 2 5 1v1l-15 3-6 1h-13v-3z" fill="#F5633C"/>
<path transform="translate(618,353)" d="m0 0h2l1 3-14 15-12 12-1 2h-5l6-7 11-12 9-9z" fill="#F7F5CF"/>
<path transform="translate(826,367)" d="m0 0 4 5 6 4-5 4-4 6-2-4-4-2-4-4 8-6z" fill="#F66A3A"/>
<path transform="translate(345,637)" d="m0 0h5l-2 4-21 10-5 2-3-1 4-4 17-10z" fill="#FEDD63"/>
<path transform="translate(294,523)" d="m0 0 3 4-12 11-13 13-2-2 3-5 6-7 5-4 4-5z" fill="#2AA0E1"/>
<path transform="translate(740,567)" d="m0 0 8 8 3 2-5 2-5 6-5-5-5-4 4-2z" fill="#8E6BEB"/>
<path transform="translate(249,554)" d="m0 0 1 2 2 1 1 7h-2l-1 6-4 5h-3l-2-3 1-8z" fill="#353CCF"/>
<path transform="translate(781,525)" d="m0 0 4 5 5 5-7 6-2 3-3-6-2-2-6-1 5-4 5-5z" fill="#D378E3"/>
<path transform="translate(227,631)" d="m0 0 4 2 6 8 10 6-1 2-6-1-12-6-4-4 2-5z" fill="#2F2297"/>
<path transform="translate(546,640)" d="m0 0h8v4l-18 5-10 1 4-4 12-5z" fill="#2D0E42"/>
<path transform="translate(689,290)" d="m0 0 2 1v3l-16 9-12 8-3 3h-2l1-4-3-1 7-3 13-8z" fill="#FCBFD2"/>
<path transform="translate(628,606)" d="m0 0h11l6 5 2 1v2l6 2v2h-2l-1 2-9-4v-2l-6-2-6-4z" fill="#290B36"/>
<path transform="translate(328,471)" d="m0 0 3 1-2 3 2 3-6 7-5 2-3-7 5-5z" fill="#301F95"/>
<path transform="translate(363,448)" d="m0 0 3 1 1 6-8 6-10-4 5-4z" fill="#2877CE"/>
<path transform="translate(693,593)" d="m0 0h7l1 2-1 6-2 4-5-6-14 5-4 1-2-2 11-5 6-3h3z" fill="#160A1B"/>
<path transform="translate(748,685)" d="m0 0 16 4v2l5 1 3 2-28-2 2-2-3-3z" fill="#8936CE"/>
<path transform="translate(642,616)" d="m0 0 6 2 5 4-4 3-8 1-1-3-10-1 3-2z" fill="#501378"/>
<path transform="translate(781,522)" d="m0 0 4 4 5 6 5 2-3 1-2 4-8 10-2-3-3-6-2-2 1-3 5 6 7-6 1-1-5-4-4-4z" fill="#461568"/>
<path transform="translate(754,554)" d="m0 0h2v3h-2l5 5 4-1v2l-8 4v-2l-6 1-1-3h-3l1-4 5-4z" fill="#15091D"/>
<path transform="translate(381,346)" d="m0 0h19l7 2-1 2h-34v-1l7-1z" fill="#51D0F0"/>
<path transform="translate(674,632)" d="m0 0 6 2 10 6 4 1v2l6 2 13 8-1 2-5-2-27-15-7-4z" fill="#2F1363"/>
<path transform="translate(725,577)" d="m0 0 6 2 9 7v4l-11-2-5-4-1-3z" fill="#140929"/>
<path transform="translate(535,359)" d="m0 0 9 1-2 6-8 4h-6l1-5h2v-2l4-3z" fill="#160B39"/>
<path transform="translate(489,378)" d="m0 0 3 1-35 17-2-1 2-4 29-12z" fill="#3FB6E6"/>
<path transform="translate(770,380)" d="m0 0m-1 1m-1 1 3 1v2l6 3-2 4-3 1-1 2h-2l-3-3-4-2 2-4z" fill="#A23837"/>
<path transform="translate(360,340)" d="m0 0h11l-2 1v3h10l-2 2-30-1v-2z" fill="#171352"/>
<path transform="translate(739,564)" d="m0 0h2v2l6 2 4 6 2 1-1 3-5 2-6 5 2-4 5-5-7-8-6 7-4 1v-2h3v-3h2l1-5z" fill="#441678"/>
<path transform="translate(656,554)" d="m0 0v3l-33 13-6 1 5-5 5-2 12-3z" fill="#FED75C"/>
<path transform="translate(737,533)" d="m0 0 1 2-4 7-8 5-5 2-1 1h-6l5-4 14-10z" fill="#FDD55C"/>
<path transform="translate(376,431)" d="m0 0 3 1-11 9-4 3-1 5-4 1-1-5 1-4z" fill="#44C9E7"/>
<path transform="translate(470,581)" d="m0 0h7l-4 2-5 2 2 2-14 3-4-1v-1l-5-1v-1z" fill="#FDE98B"/>
<path transform="translate(791,370)" d="m0 0 7 6 4 5v2l4 1 1 3-4 1-1 3-1-3v4l-2 2-3-8v-8l-5-6z" fill="#FDCB59"/>
<path transform="translate(756,522)" d="m0 0 2 1-6 6-3 5-9 6-4 5-6 3h-3l1-3 16-12 10-9z" fill="#621834"/>
<path transform="translate(374,324)" d="m0 0 10 1-4 2 2 4-11 2-5-1v-2h2l2-4z" fill="#130928"/>
<path transform="translate(428,622)" d="m0 0 5 1-2 2-21 7-3-1 4-5 10-3z" fill="#FDA13B"/>
<path transform="translate(795,535)" d="m0 0h2l1 3-2 8-5 5-6 2h-5v-2h-2v-2l4 1 8-4 4-6z" fill="#120924"/>
<path transform="translate(335,479)" d="m0 0 7 1-1 5-5 4-5-1-4-4 6-3h2z" fill="#4EB1F5"/>
<path transform="translate(652,622)" d="m0 0 6 2-1 4 3 4-1 3-5-2-8-6-2-2 7-2z" fill="#9039D3"/>
<path transform="translate(806,444)" d="m0 0 3 1 3-1v3h-2l-2 5-8 12h-1l1-8z" fill="#FC8835"/>
<path transform="translate(539,354)" d="m0 0 18 1 5 1 1 3h-25z" fill="#904CEC"/>
<path transform="translate(240,543)" d="m0 0 2 2-10 14-9 16-5 12-1-3 5-12 8-15z" fill="#298DD9"/>
<path transform="translate(327,422)" d="m0 0 5 5 2 3-5 4-1 2h-2l-4-5-2-2 5-4z" fill="#2D84D4"/>
<path transform="translate(856,216)" d="m0 0h5l-4 3-17 8-2-1 1-3-3-2z" fill="#2A0C3D"/>
<path transform="translate(255,688)" d="m0 0 3 1-3 4-21 4 2-4 2-1 5-1 4-2z" fill="#FD9E3D"/>
<path transform="translate(364,597)" d="m0 0h2v6l-17 10-2-1 9-9z" fill="#86FBF9"/>
<path transform="translate(492,534)" d="m0 0h3l3 1v2l-5 5-3 2h-7l-6 2 1-3 9-6 5 1z" fill="#7BF1F6"/>
<path transform="translate(354,392)" d="m0 0h2l4 5 2 2-5 4-2 2-7-6z" fill="#A7D4E9"/>
<path transform="translate(783,365)" d="m0 0 6 2 3 5 5 6-1 7-4-5-6-7v-2l1-1-4-3z" fill="#FCA547"/>
<path transform="translate(272,544)" d="m0 0 2 1-3 5-2 4-10 11-2 2-1-3 3-4 4-6z" fill="#46ACEE"/>
<path transform="translate(586,445)" d="m0 0 1 3-4 6h-2v2h-2l-2 4-10 9-2-2 19-19z" fill="#16165A"/>
<path transform="translate(689,538)" d="m0 0m-2 1 3 1-4 3-25 12-3-1 4-3 23-11z" fill="#FED65C"/>
<path transform="translate(792,535)" d="m0 0h3v6l-5 6-8 3 2-5z" fill="#2B0C22"/>
<path transform="translate(683,568)" d="m0 0 4 2-4 4-10 5-3-1 1-1-3-1z" fill="#FDCF60"/>
<path transform="translate(331,469)" d="m0 0 4 1 4 4-5 5-4 3-2-1 2-4-2-3 2-2-2-2z" fill="#2875CD"/>
<path transform="translate(801,394)" d="m0 0 2 3v18l-4 10-4 2 2-5 3-10z" fill="#FDF0B1"/>
<path transform="translate(448,442)" d="m0 0 4 1-1 5-6 8-4 4-3 1 2-4 5-7z" fill="#110924"/>
<path transform="translate(258,560)" d="m0 0 2 1-4 3zm-3 4 2 1-1 4-9 13-3-1 2-5z" fill="#48CEEE"/>
<path transform="translate(705,592)" d="m0 0h2l3 6-1 4-4 2-3-2v-3l-2-1z" fill="#9A8BCD"/>
<path transform="translate(748,526)" d="m0 0h3l-2 4-13 10v-3l2-4 2-1-1-2z" fill="#FB8537"/>
<path transform="translate(437,420)" d="m0 0 1 2-19 12-12 8v-3l10-7 13-8z" fill="#2A9BDF"/>
<path transform="translate(273,688)" d="m0 0h7l4 3-9 2-9 1-3-2 2-2z" fill="#200A1E"/>
<path transform="translate(657,625)" d="m0 0 6 2 7 4-4 4-8-4-2-5z" fill="#CE54F8"/>
<path transform="translate(745,563)" d="m0 0h3l2 2h5 3l-1 8-4 2-8-11z" fill="#110924"/>
<path transform="translate(767,547)" d="m0 0 11 1v3l-5 1h-9l-3 4v-3l-2-1 4-4z" fill="#1C0A1D"/>
<path transform="translate(779,241)" d="m0 0 2 1-2 4-2 3-3-1 2-5z" fill="#FBC0D2"/>
<path transform="translate(735,510)" d="m0 0 2 2-6 5-7 4-6 4-4-1 14-10z" fill="#FEE875"/>
<path transform="translate(305,514)" d="m0 0 5 1-5 5-7 6-3-1 1-4z" fill="#42BAE8"/>
<path transform="translate(751,368)" d="m0 0 3 1 3 5-5 5-5-4-2-2z" fill="#FBD5D1"/>
<path transform="translate(470,641)" d="m0 0 5 1 2 2v2l-12 2-2-2 2-1-4-2z" fill="#FB8335"/>
<path transform="translate(231,611)" d="m0 0h1l1 14 2 9-6-2-2-5 1-4 2 1z" fill="#4BABF1"/>
<path transform="translate(420,620)" d="m0 0m-6 1h6l1 3-7 2h-10v-2l3-2z" fill="#FDED8A"/>
<path transform="translate(740,570)" d="m0 0 7 6-5 5-4-2-3-3z" fill="#FCEFCD"/>
<path transform="translate(319,489)" d="m0 0h3l-2 4-10 8-5 3-2-1 13-12z" fill="#49C1EC"/>
<path transform="translate(482,558)" d="m0 0 3 1-4 6h-8l-6 1v-2z" fill="#2D0E43"/>
<path transform="translate(728,344)" d="m0 0 10 1 18 5 2 3-6-1-24-7z" fill="#FBA449"/>
<path transform="translate(708,280)" d="m0 0m-1 1m-2 1h2v3l-15 8-3-1 5-5 7-3z" fill="#FCECCE"/>
<path transform="translate(765,487)" d="m0 0 2 1-8 8-9 7h-3l-1 3-2-2 12-9 2-4 5-2z" fill="#FEF384"/>
<path transform="translate(781,244)" d="m0 0h2l-1 8-8 4-4 1 6-8z" fill="#631EA5"/>
<path transform="translate(789,438)" d="m0 0 1 2-1 1v3l-6 7-5 2 2-5 7-9z" fill="#FDE483"/>
<path transform="translate(802,416)" d="m0 0 1 2-5 12-5 8-2-2 1-5 2-4 4-2z" fill="#FDE381"/>
<path transform="translate(751,363)" d="m0 0 4 2 5 5-1 2-5-5-3-1-1 4-5 4h-2l1-4 5-4z" fill="#5B194C"/>
<path transform="translate(391,321)" d="m0 0 9 2-1 4-8 1-3-2 2-4z" fill="#110923"/>
<path transform="translate(691,491)" d="m0 0h2l3 5-2 4h-4l-4-2 1-3z" fill="#FDF4BB"/>
<path transform="translate(688,486)" d="m0 0h3l-1 4-7 6h-5l5-7z" fill="#4B132A"/>
<path transform="translate(826,372)" d="m0 0 4 2 3 3-7 5v-2l-3-1 1-5z" fill="#FCF4C9"/>
<path transform="translate(707,587)" d="m0 0h6l2 4v8h-2v-2h-2l-2-5-2-1z" fill="#180A31"/>
<path transform="translate(781,529)" d="m0 0 3 1 3 5-4 4-4-2-1-4z" fill="#FCF1CD"/>
<path transform="translate(564,468)" d="m0 0 2 1-13 13-4 5-6 4 2-4zm-22 23v3l-2-1z" fill="#110F38"/>
<path transform="translate(507,324)" d="m0 0h6l-4 2 7 1v1h-19l-2-1v-2z" fill="#8DA4F5"/>
<path transform="translate(826,364)" d="m0 0 2 1v2l5 1 4 6v2l-4-1-5-4-2-4z" fill="#56152F"/>
<path transform="translate(750,240)" d="m0 0 9 1-4 2-12 3-6-1 3-2z" fill="#611D9C"/>
<path transform="translate(656,657)" d="m0 0h9l18 6v1l-10-1-12-4-5-1z" fill="#E9A1DF"/>
<path transform="translate(724,577)" d="m0 0 1 3-1 3h-3v2l-8 3-1-3 5-3 3-3z" fill="#160A1B"/>
<path transform="translate(498,547)" d="m0 0 2 2-1 3-10 4-2 2-4-1 8-6z" fill="#160B39"/>
<path transform="translate(728,576)" d="m0 0 6 1 7 8v5l-1-4-4-2-8-6z" fill="#3F1678"/>
<path transform="translate(740,374)" d="m0 0h2l3 9 6 5 3 1 2 3-1 3-1-3-4-2-6-4-3-4z" fill="#1C0A1D"/>
<path transform="translate(694,562)" d="m0 0 3 2-5 5-4 2-3-1v-3z" fill="#FCC0B0"/>
<path transform="translate(493,476)" d="m0 0 4 2-8 8-1-4 1-1-4-2v-1z" fill="#54F3FB"/>
<path transform="translate(497,606)" d="m0 0 4 1-13 6-6-1v-2z" fill="#F66339"/>
<path transform="translate(705,589)" d="m0 0h2v2l4 2v4h2v2l-4-1-2-6h-2l-2 4-4 3 2-5z" fill="#4B2079"/>
<path transform="translate(769,385)" d="m0 0 5 5-3 5h-2l-4-4 1-3z" fill="#FCE1CF"/>
<path transform="translate(756,687)" d="m0 0 8 2v2l5 1 3 2-14-1z" fill="#9F48E2"/>
<path transform="translate(542,564)" d="m0 0h6l-3 2 1 2-7 1-2-1-8 1 1-2z" fill="#FDEDB7"/>
<path transform="translate(703,557)" d="m0 0 2 1v3l-8 5-3-1 2-1v-3z" fill="#FCEFC2"/>
<path transform="translate(656,554)" d="m0 0v3l-17 7-3-1 14-7z" fill="#FED95D"/>
<path transform="translate(376,431)" d="m0 0 3 1-11 9-5-1 4-4z" fill="#45C8E8"/>
<path transform="translate(508,378)" d="m0 0 2 1-20 12h-2l2-4z" fill="#3293DD"/>
<path transform="translate(351,340)" d="m0 0h9v1l-13 2v2l-14-1v-1l9-1z" fill="#301F95"/>
<path transform="translate(698,593)" d="m0 0 3 1-1 9-2 2-4-4v-5l3-1z" fill="#14092A"/>
<path transform="translate(754,554)" d="m0 0h2v3h-2v2l-6 3-3 1 1-4 5-4z" fill="#1C0A1D"/>
<path transform="translate(777,388)" d="m0 0 2 2-8 7-4-1-4-4 1-2 5 3v2h2l1-3 4-2z" fill="#72225E"/>
<path transform="translate(295,653)" d="m0 0m-1 1m-2 1h2l-1 3-11 7-5 3-2-1 11-8z" fill="#FDFBCD"/>
<path transform="translate(674,632)" d="m0 0 6 2 10 6-1 2-5-2-11-6z" fill="#3B1064"/>
<path transform="translate(294,508)" d="m0 0 2 1-9 9-2-1zm-11 10 2 1-6 7h-2l2-4z" fill="#3398E1"/>
<path transform="translate(464,403)" d="m0 0m-1 1m-2 1h2v2l-15 9h-2l2-4 10-5z" fill="#287AD0"/>
<path transform="translate(745,374)" d="m0 0 5 2 4 2 3 1-4 4h-2v-2l-4-2-2-2z" fill="#5F1B54"/>
<path transform="translate(294,656)" d="m0 0 5 1-2 4-1 1h-6l-1-3z" fill="#FEF485"/>
<path transform="translate(234,604)" d="m0 0h1v11l-1 5h-2v-14z" fill="#4CDCF2"/>
<path transform="translate(451,557)" d="m0 0h5l-4 3-9 5-4-2z" fill="#83F9F7"/>
<path transform="translate(363,448)" d="m0 0 3 1 1 6-5 2-1-7z" fill="#301F95"/>
<path transform="translate(489,352)" d="m0 0h9l4 2-2 2-11-1z" fill="#50B1F6"/>
<path transform="translate(597,548)" d="m0 0 4 1-2 2 2 2-8 2-2-5z" fill="#FDCD5A"/>
<path transform="translate(756,522)" d="m0 0 2 1-6 6-3 5-5 3-2-1z" fill="#601833"/>
<path transform="translate(740,561)" d="m0 0 2 1v2l5 2 6 7v2l-3-1-3-4v-2l-4-1-3-3z" fill="#210B38"/>
<path transform="translate(404,441)" d="m0 0h2v2l-12 8h-4l5-5z" fill="#37AEE0"/>
<path transform="translate(557,355)" d="m0 0h12l1 2-6 1v2h-6z" fill="#5D35DC"/>
<path transform="translate(820,376)" d="m0 0h3l1 3 3 2 3-3 2 1-5 7-2-4-4-2z" fill="#F8763C"/>
<path transform="translate(399,347)" d="m0 0h7v3h-19v-1l10-1z" fill="#61F5FA"/>
<path transform="translate(411,626)" d="m0 0h6l2 3-9 3-3-1z" fill="#FD8A35"/>
<path transform="translate(781,522)" d="m0 0 4 4 5 6 5 2v1h-5l-6-5-4-4z" fill="#661F9F"/>
<path transform="translate(791,370)" d="m0 0 7 6 5 7-1 2-10-11z" fill="#FDFBCD"/>
<path transform="translate(319,650)" d="m0 0 2 1-4 4-9 4-3-1z" fill="#FEEC78"/>
<path transform="translate(479,639)" d="m0 0h6l-2 2h-5v2l4 1-1 1h-7v-3-2z" fill="#FD9638"/>
<path transform="translate(458,562)" d="m0 0h2l-1 3-8 5-3-1 4-4z" fill="#140D2F"/>
<path transform="translate(808,438)" d="m0 0 5 1-2 6-3 1-2-4z" fill="#FEBD53"/>
<path transform="translate(326,425)" d="m0 0 4 2 1 3-3 3-3-1-1-4z" fill="#75F1F7"/>
<path transform="translate(347,397)" d="m0 0 2 1 7 7v6l-2-3-7-8-2-2z" fill="#2A60BF"/>
<path transform="translate(663,306)" d="m0 0 3 1v2l-6 5h-2l1-4-3-1z" fill="#FCEACE"/>
<path transform="translate(245,646)" d="m0 0 10 1 3 3h-12z" fill="#439CE8"/>
<path transform="translate(583,638)" d="m0 0 10 2v2l-9 1z" fill="#3E1062"/>
<path transform="translate(360,620)" d="m0 0 2 1v7l-1 5h-2l-1-5 1-7z" fill="#FEDC5E"/>
<path transform="translate(399,567)" d="m0 0v3l-14 11-1-2 11-9z" fill="#FDFBCD"/>
<path transform="translate(719,551)" d="m0 0 3 1-5 4-7 4-2-2z" fill="#711F34"/>
<path transform="translate(240,543)" d="m0 0 2 2-8 11-2-2z" fill="#287AD0"/>
<path transform="translate(422,332)" d="m0 0h7l-1 2-5 1h-15v-1l11-1z" fill="#906EF2"/>
<path transform="translate(298,505)" d="m0 0 2 1-4 6-4 4-3-1z" fill="#4CABF2"/>
<path transform="translate(302,470)" d="m0 0 3 1v3l-6 1-3-1 1-3z" fill="#3399DA"/>
<path transform="translate(609,336)" d="m0 0 4 2-4 3h-3l-1 2-3-1v-2z" fill="#B590EC"/>
<path transform="translate(269,689)" d="m0 0 5 1-2 1v2l-6 1-3-2 2-2z" fill="#320E24"/>
<path transform="translate(652,622)" d="m0 0 6 2-1 6-5-3-1-4z" fill="#9348E5"/>
<path transform="translate(591,551)" d="m0 0 2 1v3l-9 2v-3z" fill="#FDF68B"/>
<path transform="translate(467,390)" d="m0 0 1 2-2 5-6-1 1-3z" fill="#141343"/>
<path transform="translate(489,378)" d="m0 0 3 1-12 6-4-2z" fill="#2E96DA"/>
<path transform="translate(618,353)" d="m0 0h2l1 3-5 6-3-3z" fill="#FCE4CE"/>
<path transform="translate(238,642)" d="m0 0 9 5-1 2-6-1-2-2z" fill="#2E58CC"/>
<path transform="translate(793,369)" d="m0 0 4 1 2 2v5l-7-6z" fill="#FDB04C"/>
<path transform="translate(597,639)" d="m0 0 9 1 4 2h-14l-2-2z" fill="#DD70F7"/>
<path transform="translate(649,620)" d="m0 0 4 2-4 3-5-1v-2z" fill="#621DA3"/>
<path transform="translate(715,499)" d="m0 0 6 1v2l-5 3-3-1z" fill="#FDF18B"/>
<path transform="translate(314,495)" d="m0 0 2 1-9 7-4 1 5-6 5-2z" fill="#4FB4F4"/>
<path transform="translate(607,636)" d="m0 0 3 1v3l-4 1-6-2 4-2z" fill="#913EDA"/>
<path transform="translate(428,622)" d="m0 0 5 1-2 2-7 1-2-2z" fill="#FD8B35"/>
<path transform="translate(710,554)" d="m0 0 3 1-3 3-4 2-2-2 2-3z" fill="#FCCFC4"/>
<path transform="translate(792,535)" d="m0 0 2 1-5 8-6 4 2-4z" fill="#280B35"/>
<path transform="translate(775,535)" d="m0 0 5 4 2 5v5l-2-3-3-6-2-2z" fill="#67219F"/>
<path transform="translate(771,535)" d="m0 0h4l3 5 2 3-1 3-8-10z" fill="#39154A"/>
<path transform="translate(783,523)" d="m0 0 6 5 1 2 3 1 1 3-5-2-6-7z" fill="#341444"/>
<path transform="translate(689,487)" d="m0 0h2l-2 4-6 5-2-1 5-6z" fill="#631935"/>
<path transform="translate(769,383)" d="m0 0h2v2l6 3-2 4-3-1v-3l-3-3z" fill="#F56039"/>
<path transform="translate(770,381)" d="m0 0 4 1 3 3v3l-6-3v-2l-2-1z" fill="#631935"/>
<path transform="translate(783,365)" d="m0 0 6 2 3 5-1 2-2-4-5-2z" fill="#FEDC5E"/>
</svg>
